<?xml version="1.0" standalone="no"?>
<!DOCTYPE svg PUBLIC "-//W3C//DTD SVG 20010904//EN"
 "http://www.w3.org/TR/2001/REC-SVG-20010904/DTD/svg10.dtd">
<svg version="1.0" xmlns="http://www.w3.org/2000/svg"
 width="1181.000000pt" height="1181.000000pt" viewBox="0 0 1181.000000 1181.000000"
 preserveAspectRatio="xMidYMid meet">
<metadata>
Created by potrace 1.16, written by Peter Selinger 2001-2019
</metadata>
<g transform="translate(0.000000,1181.000000) scale(0.100000,-0.100000)"
fill="#000000" stroke="none">
<path d="M5719 11343 c-20 -23 -14 -338 7 -370 18 -29 64 -30 89 -3 15 17 17
37 13 184 -3 143 -6 167 -22 185 -23 25 -68 27 -87 4z"/>
<path d="M6755 11300 c-13 -15 -16 -29 -11 -62 4 -29 0 -69 -14 -122 -11 -44
-20 -91 -20 -106 0 -52 61 -79 98 -42 25 25 66 211 59 268 -2 25 -13 54 -22
64 -23 26 -67 26 -90 0z"/>
<path d="M4836 11261 c-17 -19 -17 -27 4 -170 28 -193 31 -203 64 -220 25 -12
31 -11 55 7 32 24 32 30 3 221 -15 95 -28 151 -39 163 -21 24 -65 23 -87 -1z"/>
<path d="M7699 11124 c-8 -9 -19 -44 -26 -77 -7 -33 -31 -97 -53 -142 -33 -67
-39 -86 -31 -107 16 -43 65 -51 99 -15 43 46 99 184 109 270 5 37 2 52 -12 67
-22 24 -68 26 -86 4z"/>
<path d="M3917 10982 c-18 -20 -23 -67 -8 -76 5 -3 32 -61 61 -128 59 -139 72
-158 110 -158 38 0 64 32 57 70 -9 41 -112 268 -133 291 -22 24 -66 24 -87 1z"/>
<path d="M8593 10703 c-15 -21 -65 -84 -110 -140 -87 -106 -98 -136 -65 -166
47 -43 79 -19 230 178 65 84 76 120 46 149 -28 29 -70 20 -101 -21z"/>
<path d="M3137 10582 c-10 -10 -17 -28 -17 -39 0 -27 145 -293 189 -345 21
-26 56 -22 81 9 26 34 22 53 -31 139 -22 37 -59 101 -81 143 -23 42 -48 84
-56 94 -20 22 -64 22 -85 -1z"/>
<path d="M5225 10520 c-55 -15 -134 -36 -175 -45 -107 -24 -216 -59 -360 -115
-69 -27 -213 -77 -320 -111 -206 -65 -471 -167 -630 -241 -97 -45 -201 -119
-368 -260 -52 -43 -111 -87 -132 -98 -21 -11 -41 -24 -45 -30 -3 -6 -50 -45
-103 -87 -160 -126 -406 -387 -577 -613 -27 -36 -78 -101 -114 -145 -74 -92
-177 -244 -271 -397 -36 -59 -98 -160 -139 -225 -170 -271 -360 -680 -446
-961 -29 -94 -53 -153 -70 -174 -23 -27 -26 -39 -22 -72 3 -23 -8 -123 -28
-240 -19 -119 -42 -312 -54 -471 -12 -148 -26 -314 -31 -368 -6 -54 -10 -200
-10 -325 0 -189 4 -254 24 -387 32 -209 87 -451 124 -545 16 -41 42 -113 57
-160 29 -86 140 -337 177 -400 11 -19 61 -111 109 -203 49 -92 138 -245 199
-340 61 -95 147 -230 191 -302 151 -247 234 -357 557 -737 74 -87 323 -326
418 -402 28 -23 85 -71 125 -107 41 -36 119 -93 174 -128 55 -34 129 -83 165
-108 36 -25 106 -64 155 -88 50 -23 134 -63 188 -89 75 -36 133 -55 253 -81
85 -19 198 -48 252 -65 105 -33 184 -44 452 -61 182 -12 243 -11 600 16 118 8
294 20 390 25 129 6 202 15 280 34 58 14 155 30 215 35 61 5 160 20 220 34 61
14 139 28 175 32 256 26 987 291 1210 439 30 20 111 65 180 98 69 34 152 78
185 98 33 20 102 59 154 86 72 37 118 72 197 145 56 53 130 118 165 144 35 27
102 85 149 130 47 45 103 94 125 110 99 73 221 184 340 310 71 75 171 173 223
217 58 50 116 111 152 162 33 44 84 115 114 157 66 90 86 134 79 171 -4 19 13
75 55 180 106 269 133 353 249 778 39 146 75 346 104 585 26 222 37 743 20
943 -19 209 -51 470 -66 537 -8 34 -21 115 -30 180 -9 66 -30 174 -46 240 -38
149 -130 438 -158 493 -12 23 -21 52 -21 65 0 14 -7 42 -16 63 -24 56 -157
258 -207 312 -51 55 -132 162 -241 319 -43 62 -114 152 -158 200 -137 150
-371 422 -453 527 -127 164 -309 361 -450 488 -55 49 -118 107 -140 128 -33
31 -50 39 -95 45 -91 11 -200 45 -280 86 -106 55 -248 115 -349 149 -47 15
-135 47 -196 70 -132 50 -309 96 -425 111 -48 5 -159 34 -255 64 -249 78 -389
113 -490 124 -50 6 -157 20 -240 32 -113 16 -231 23 -475 29 -179 5 -345 11
-370 14 -32 4 -74 -3 -145 -24z m935 -134 c58 -9 161 -23 229 -31 120 -14 283
-53 426 -100 147 -49 283 -84 365 -95 115 -15 253 -51 385 -101 61 -22 153
-56 207 -74 110 -38 230 -89 337 -143 l74 -37 -194 -11 c-178 -11 -268 -24
-310 -45 -11 -6 -51 5 -120 33 -124 48 -163 53 -167 21 -3 -19 7 -27 63 -52
37 -17 90 -38 119 -47 60 -19 50 3 136 -279 32 -104 65 -210 74 -234 24 -64
131 -328 155 -381 11 -25 21 -58 21 -75 1 -16 7 -46 13 -65 9 -24 10 -43 3
-62 -7 -18 -7 -37 0 -55 8 -24 6 -31 -22 -55 -18 -16 -48 -35 -68 -43 -28 -12
-36 -21 -36 -40 0 -22 4 -25 33 -25 34 0 107 41 142 80 15 17 21 18 34 7 9 -7
51 -35 95 -62 43 -26 106 -73 140 -105 60 -55 251 -203 351 -270 41 -27 185
-140 205 -160 3 -3 32 -27 65 -55 33 -27 69 -58 80 -68 11 -10 73 -48 137 -85
65 -36 128 -76 141 -87 12 -12 45 -38 73 -57 28 -20 62 -47 77 -60 34 -31 83
-139 107 -232 16 -64 20 -71 44 -74 23 -3 26 0 26 30 0 45 -22 122 -55 195
-30 67 -28 94 8 110 13 6 51 42 85 79 97 109 244 283 276 327 l29 40 21 -29
c47 -65 161 -307 199 -424 63 -196 115 -405 133 -530 8 -63 22 -142 29 -176
15 -66 47 -319 66 -528 17 -188 6 -703 -20 -911 -42 -334 -65 -448 -138 -700
-14 -49 -33 -117 -43 -149 l-17 -59 -13 54 c-7 30 -43 149 -80 264 -38 116
-76 239 -86 275 -25 94 -74 197 -147 308 -36 53 -76 121 -91 150 -14 28 -30
52 -34 52 -4 1 -17 9 -30 20 l-23 19 21 61 c15 45 20 81 18 133 -3 70 -4 72
-30 75 l-28 3 0 -65 c0 -41 -8 -85 -21 -121 -11 -30 -18 -63 -15 -73 5 -15 -2
-21 -36 -32 -45 -15 -216 -110 -383 -215 -55 -34 -143 -84 -195 -110 -110 -55
-311 -179 -430 -265 -55 -40 -93 -60 -112 -60 -41 0 -70 -33 -67 -78 4 -75 3
-76 -33 -50 -18 12 -57 42 -86 66 -58 47 -95 53 -100 15 -3 -17 18 -38 105
-103 102 -76 108 -84 114 -123 13 -88 -30 -637 -67 -857 -9 -52 -29 -135 -44
-185 -16 -49 -41 -148 -57 -220 l-29 -130 -50 -33 c-33 -23 -49 -41 -49 -55 0
-30 37 -34 79 -7 l34 21 7 -21 c7 -23 62 -54 115 -65 19 -4 81 -25 138 -46
114 -43 279 -76 442 -89 58 -4 122 -11 143 -14 20 -3 53 -9 73 -12 l35 -5 -48
-36 c-26 -20 -86 -73 -133 -117 -47 -45 -114 -104 -150 -131 -36 -27 -113 -93
-172 -147 -71 -64 -131 -109 -178 -133 -39 -19 -98 -53 -133 -73 -34 -21 -105
-59 -157 -83 -52 -25 -140 -72 -195 -105 -155 -94 -342 -180 -552 -254 -315
-113 -526 -173 -662 -190 -46 -5 -136 -21 -200 -34 -64 -13 -165 -29 -226 -35
-60 -6 -144 -21 -185 -32 -74 -20 -310 -39 -310 -25 0 4 25 46 56 93 102 155
343 565 411 700 l67 133 51 -6 c34 -4 69 0 110 13 52 16 60 22 60 43 0 32 -28
37 -91 15 -57 -19 -128 -11 -157 18 -16 16 -28 18 -63 13 -43 -5 -46 -4 -107
52 -46 41 -101 75 -193 120 -71 35 -167 90 -214 122 -47 31 -126 78 -176 103
-50 25 -120 69 -155 97 -35 28 -98 72 -139 98 -41 25 -101 69 -132 98 -31 29
-87 66 -123 83 -51 24 -65 36 -61 49 13 47 17 109 11 163 -7 58 -8 60 -34 57
-24 -3 -26 -7 -24 -43 1 -22 -1 -63 -3 -92 l-5 -52 -35 6 c-27 4 -43 0 -66
-17 -21 -15 -53 -25 -102 -31 -39 -4 -97 -19 -129 -33 -32 -15 -90 -31 -129
-36 -39 -6 -75 -13 -80 -16 -5 -3 -62 -12 -126 -20 -65 -7 -147 -22 -182 -33
-192 -59 -418 -112 -494 -115 -44 -2 -97 -8 -116 -13 -34 -8 -35 -10 -37 -61
-3 -55 5 -85 142 -512 41 -129 91 -291 111 -360 48 -168 77 -254 108 -323 14
-31 22 -57 17 -57 -5 0 -59 34 -121 76 -62 42 -142 94 -179 116 -36 22 -86 59
-111 83 -25 24 -90 80 -145 125 -339 276 -748 762 -990 1175 -39 66 -103 167
-141 225 -177 263 -390 679 -484 945 -32 88 -56 162 -54 164 1 1 85 -24 186
-57 101 -34 212 -68 248 -77 128 -31 127 -31 172 -108 70 -121 117 -179 141
-175 35 5 31 39 -10 95 -21 28 -47 67 -58 86 -18 35 -18 37 -1 56 11 12 26 65
41 143 13 68 41 197 63 288 22 91 45 210 52 265 6 55 16 138 21 185 10 81 42
237 94 455 13 55 33 143 46 195 12 52 25 99 29 103 4 5 32 14 61 21 44 9 55
16 57 34 4 30 -18 37 -78 25 -46 -9 -49 -9 -60 16 -6 14 -23 46 -36 71 -14 25
-45 88 -71 140 -26 52 -66 127 -89 165 -23 39 -65 126 -92 195 -64 160 -223
488 -257 528 l-25 30 35 59 c19 32 41 65 47 74 15 21 4 49 -20 49 -26 0 -58
-37 -101 -119 -30 -58 -47 -77 -89 -104 -29 -17 -89 -58 -133 -91 -44 -32 -82
-56 -85 -54 -16 16 183 475 298 691 33 60 92 161 131 224 40 62 101 162 137
221 153 252 422 600 683 885 49 53 94 97 99 97 6 0 7 -11 4 -25 -3 -13 -9 -51
-12 -83 -6 -52 -4 -62 15 -81 11 -11 21 -24 21 -29 0 -4 -61 -68 -135 -142
-95 -95 -135 -142 -135 -158 0 -56 31 -36 186 119 136 136 157 153 183 151 16
-2 42 3 58 11 26 14 208 52 443 93 56 10 192 20 330 25 129 4 291 12 359 18
99 9 126 9 132 -1 5 -7 23 -52 40 -100 27 -76 35 -88 54 -88 36 0 37 24 4 115
-27 79 -29 87 -14 107 8 13 15 30 15 40 0 11 7 18 19 18 11 0 82 65 172 156
90 91 225 213 324 292 93 76 213 179 267 229 54 51 110 100 126 110 15 9 47
33 72 52 44 36 45 36 145 36 l100 0 0 25 c0 24 -4 25 -75 33 -41 4 -90 6 -108
4 -26 -2 -31 0 -26 12 27 63 1 97 -103 137 -40 15 -73 29 -73 32 0 11 632 -7
730 -22z"/>
<path d="M5938 10164 c-14 -13 -8 -43 10 -53 21 -11 221 -42 318 -48 59 -4 72
-2 77 11 13 32 -3 43 -71 49 -60 5 -197 25 -292 42 -19 4 -38 3 -42 -1z"/>
<path d="M6454 10076 c-16 -40 0 -46 128 -46 68 -1 143 -6 168 -11 25 -6 59
-11 75 -12 26 -2 30 2 30 23 0 42 -40 53 -227 58 -149 4 -168 3 -174 -12z"/>
<path d="M6973 10034 c-11 -30 13 -49 93 -72 43 -13 102 -32 129 -44 69 -29
109 -29 113 -1 4 28 -59 61 -178 92 -47 13 -89 27 -94 32 -16 15 -56 10 -63
-7z"/>
<path d="M4652 8893 c3 -32 21 -98 40 -148 31 -79 38 -90 59 -90 34 0 35 31 4
105 -14 34 -32 89 -38 123 -12 57 -15 62 -41 65 l-29 4 5 -59z"/>
<path d="M2688 8653 c-20 -32 -61 -100 -92 -150 -62 -102 -71 -143 -32 -143
19 0 34 17 79 93 31 51 72 118 92 148 40 61 44 102 9 107 -16 2 -29 -10 -56
-55z"/>
<path d="M7690 8265 c-30 -31 -79 -68 -108 -82 -42 -20 -52 -30 -50 -47 4 -29
47 -32 95 -7 21 11 69 49 106 86 72 69 82 98 37 103 -19 2 -38 -10 -80 -53z"/>
<path d="M2397 8158 c-53 -72 -199 -366 -195 -392 2 -13 12 -22 25 -24 19 -3
33 19 113 178 51 100 105 197 122 215 34 40 34 69 -2 73 -20 2 -33 -8 -63 -50z"/>
<path d="M4977 8184 c-12 -13 -8 -52 13 -106 26 -68 26 -68 -10 -68 -37 0 -50
-13 -125 -135 -33 -53 -88 -137 -122 -188 -35 -51 -89 -139 -120 -195 -212
-381 -461 -771 -563 -881 -27 -30 -40 -53 -40 -72 0 -16 -9 -38 -20 -49 -52
-52 -12 -119 194 -330 83 -85 186 -200 228 -255 85 -112 125 -152 215 -217 60
-43 160 -126 307 -256 39 -34 110 -96 158 -138 86 -75 88 -77 82 -114 -7 -43
7 -76 37 -85 19 -6 20 -14 19 -133 -2 -162 -3 -152 20 -152 32 0 40 33 40 169
l0 131 25 0 c15 0 36 11 49 25 13 14 52 37 87 51 35 14 82 34 104 44 79 35
169 72 283 115 65 24 167 64 227 90 61 25 209 80 330 122 121 41 263 92 317
114 56 22 127 42 170 48 40 5 78 10 84 12 6 2 43 -22 83 -54 74 -59 112 -70
119 -34 3 16 -20 41 -86 94 -22 17 -22 19 -7 50 13 27 14 43 6 90 -6 32 -15
96 -22 143 -6 47 -15 102 -20 122 -5 20 -14 85 -20 145 -9 96 -27 187 -124
607 -14 60 -35 172 -46 250 -11 78 -29 187 -39 244 -26 133 -25 156 1 168 11
5 58 43 104 84 67 60 84 80 82 100 -4 45 -34 35 -118 -41 -86 -77 -99 -79 -99
-14 0 35 -21 70 -52 86 -31 17 -138 29 -338 38 -151 8 -194 14 -315 44 -92 24
-183 40 -265 46 -69 6 -168 19 -220 30 -52 10 -120 21 -150 24 -30 4 -121 14
-202 23 l-147 17 -12 31 c-6 17 -21 60 -34 96 -16 46 -28 66 -42 68 -10 2 -22
0 -26 -4z"/>
<path d="M7320 8004 c-33 -35 -93 -76 -169 -114 -50 -26 -62 -36 -59 -53 5
-35 41 -32 125 12 89 47 186 132 181 158 -5 29 -50 28 -78 -3z"/>
<path d="M9594 6976 c-3 -8 -1 -31 5 -53 6 -21 11 -67 12 -103 1 -36 4 -90 7
-120 6 -47 10 -55 30 -58 12 -2 24 3 27 11 9 22 -13 295 -25 317 -12 23 -48
27 -56 6z"/>
<path d="M3688 6405 c-3 -3 -61 -14 -129 -24 -113 -16 -124 -19 -127 -39 -2
-14 3 -25 14 -29 20 -8 186 12 259 30 43 11 50 17 50 38 0 19 -6 25 -30 27
-17 2 -33 0 -37 -3z"/>
<path d="M9634 6395 c-4 -8 -3 -25 1 -38 4 -12 10 -83 14 -157 l6 -135 25 0
25 0 3 119 c1 66 -2 144 -8 173 -10 47 -14 53 -36 53 -14 0 -27 -7 -30 -15z"/>
<path d="M3095 6285 c-60 -19 -131 -34 -157 -34 -47 -1 -48 -2 -48 -32 l0 -32
73 6 c39 2 113 17 162 32 133 40 137 42 133 68 -4 32 -37 31 -163 -8z"/>
<path d="M7297 5523 c-19 -18 0 -47 70 -113 153 -143 194 -166 201 -114 2 17
-22 43 -100 112 -57 49 -109 97 -117 106 -14 16 -42 21 -54 9z"/>
<path d="M7757 5183 c-18 -17 -3 -46 44 -85 28 -24 90 -76 137 -116 51 -44 90
-71 99 -68 8 3 17 6 19 6 2 0 4 9 4 19 0 21 -70 92 -160 163 -30 23 -66 53
-80 65 -25 23 -50 29 -63 16z"/>
<path d="M5150 4588 c-18 -44 -51 -350 -39 -365 13 -15 35 -17 44 -3 6 10 48
308 49 355 1 24 -4 31 -21 33 -16 2 -26 -4 -33 -20z"/>
<path d="M2437 4123 c-15 -14 -5 -45 34 -104 60 -90 136 -161 168 -157 44 5
34 32 -36 104 -37 38 -79 90 -93 117 -18 33 -31 47 -46 47 -11 0 -24 -3 -27
-7z"/>
<path d="M5046 3997 c-3 -39 -17 -121 -31 -181 -13 -60 -22 -113 -19 -117 3
-5 16 -9 29 -9 20 0 26 7 34 38 23 84 42 191 48 265 l6 77 -30 0 c-30 0 -30 0
-37 -73z"/>
<path d="M2737 3763 c-27 -26 37 -95 216 -230 52 -40 97 -44 97 -10 0 17 -14
34 -47 57 -51 37 -206 171 -211 183 -4 9 -46 9 -55 0z"/>
<path d="M3110 3406 c0 -16 35 -58 120 -145 66 -66 127 -121 134 -121 17 0 39
26 34 40 -1 5 -56 64 -121 130 -87 88 -125 120 -143 120 -19 0 -24 -5 -24 -24z"/>
<path d="M7818 2994 c-47 -25 -109 -50 -137 -57 -43 -10 -51 -15 -51 -35 0
-12 7 -25 16 -29 25 -10 107 13 186 52 90 45 117 69 102 92 -6 9 -15 18 -20
19 -5 1 -48 -18 -96 -42z"/>
<path d="M7330 2774 c-41 -20 -93 -39 -115 -43 -34 -5 -40 -10 -40 -31 0 -24
3 -25 55 -24 78 2 230 75 230 110 0 35 -39 31 -130 -12z"/>
<path d="M6915 2640 c-90 -40 -157 -63 -195 -69 -37 -5 -46 -10 -48 -28 -3
-17 4 -26 24 -34 30 -11 59 -6 109 16 52 24 159 63 180 67 13 2 21 12 23 31 3
25 1 27 -35 26 -21 0 -47 -4 -58 -9z"/>
<path d="M2417 10362 c-24 -26 -21 -50 11 -118 37 -81 122 -235 140 -256 32
-37 102 -10 102 39 0 11 -16 49 -35 84 -20 35 -56 104 -80 153 -24 48 -50 94
-56 102 -16 20 -63 17 -82 -4z"/>
<path d="M9299 10229 c-41 -28 -111 -80 -156 -116 -69 -53 -83 -69 -83 -92 0
-33 27 -61 61 -61 14 0 49 20 84 48 33 26 92 70 130 97 39 27 80 57 93 68 41
37 20 107 -32 107 -12 0 -56 -23 -97 -51z"/>
<path d="M2017 10082 c-9 -10 -17 -29 -17 -41 0 -25 67 -127 178 -273 62 -83
78 -98 101 -98 33 0 61 27 61 60 0 13 -34 69 -78 129 -43 58 -99 135 -123 171
-36 53 -50 66 -75 68 -20 2 -36 -4 -47 -16z"/>
<path d="M9770 9483 c-47 -41 -116 -96 -155 -122 -77 -51 -93 -84 -59 -122 40
-45 113 -7 287 146 78 70 97 92 97 114 0 16 -8 35 -18 44 -34 31 -63 20 -152
-60z"/>
<path d="M1577 9522 c-33 -36 -21 -64 61 -145 91 -91 218 -187 248 -187 44 0
71 66 42 101 -7 8 -47 40 -88 71 -41 31 -102 84 -135 117 -64 66 -98 77 -128
43z"/>
<path d="M1297 9122 c-40 -44 -27 -63 150 -222 175 -157 195 -168 233 -130 41
41 30 60 -104 179 -61 55 -133 120 -161 145 -54 50 -91 59 -118 28z"/>
<path d="M10120 8922 c-144 -115 -162 -141 -124 -183 30 -33 65 -24 140 39 38
31 92 75 119 96 28 22 56 46 63 55 30 36 2 101 -44 101 -11 0 -80 -49 -154
-108z"/>
<path d="M1017 8542 c-28 -31 -21 -67 20 -101 70 -58 241 -139 294 -140 32 -1
59 27 59 61 0 33 -16 46 -102 80 -38 16 -101 48 -139 73 -75 49 -107 55 -132
27z"/>
<path d="M10916 8369 c-21 -11 -107 -64 -190 -117 -83 -53 -165 -101 -182
-107 -46 -16 -64 -34 -64 -65 0 -36 29 -60 72 -60 27 0 65 19 159 78 68 43
156 98 194 122 90 56 115 79 115 104 0 27 -9 40 -37 55 -27 14 -21 15 -67 -10z"/>
<path d="M757 7942 c-43 -48 -6 -100 109 -154 61 -28 228 -78 263 -78 44 0 68
72 34 103 -10 8 -60 27 -112 42 -94 26 -153 51 -203 86 -33 24 -70 24 -91 1z"/>
<path d="M11097 7749 c-71 -36 -282 -109 -318 -109 -53 0 -79 -69 -39 -105 16
-14 30 -17 72 -12 104 11 362 111 409 158 38 38 14 99 -39 99 -15 -1 -53 -15
-85 -31z"/>
<path d="M11172 7115 c-87 -40 -210 -75 -266 -75 -39 0 -57 -5 -69 -18 -22
-24 -21 -65 1 -85 26 -24 129 -22 222 4 89 24 220 83 238 106 29 39 1 93 -49
93 -13 0 -48 -11 -77 -25z"/>
<path d="M517 7102 c-22 -24 -21 -65 1 -85 12 -11 65 -24 153 -37 74 -11 169
-27 212 -36 73 -16 78 -16 97 1 11 10 20 30 20 45 0 56 -38 69 -304 109 -168
25 -159 25 -179 3z"/>
<path d="M11178 6455 c-76 -25 -157 -48 -180 -51 -24 -4 -51 -14 -60 -22 -24
-20 -23 -65 2 -87 29 -26 96 -16 268 39 78 25 151 46 161 46 46 0 72 88 32
110 -34 18 -83 10 -223 -35z"/>
<path d="M655 6348 c-120 -10 -145 -22 -145 -68 0 -15 9 -35 19 -44 18 -16 31
-17 158 -7 77 6 184 11 240 11 110 0 133 11 133 62 0 50 -24 58 -166 57 -71
-1 -178 -6 -239 -11z"/>
<path d="M11380 5848 c-19 -5 -96 -9 -170 -10 -148 0 -170 -8 -170 -58 0 -53
23 -61 181 -61 197 1 259 19 259 77 0 20 -43 66 -59 63 -3 -1 -22 -5 -41 -11z"/>
<path d="M745 5594 c-71 -13 -144 -26 -162 -29 -18 -3 -39 -13 -48 -21 -21
-21 -19 -67 5 -89 18 -17 27 -16 202 14 101 17 192 31 204 31 47 0 72 71 36
103 -25 22 -77 20 -237 -9z"/>
<path d="M10997 5242 c-25 -28 -18 -70 15 -95 23 -18 47 -20 195 -25 161 -4
169 -3 196 18 30 24 34 46 12 77 -14 19 -26 21 -172 26 -87 4 -174 9 -193 12
-28 5 -39 2 -53 -13z"/>
<path d="M900 4914 c-41 -13 -120 -36 -175 -50 -121 -31 -131 -36 -139 -69 -8
-33 8 -63 39 -71 30 -7 137 16 277 62 59 18 116 34 126 34 46 0 69 72 34 103
-25 23 -74 21 -162 -9z"/>
<path d="M10855 4640 c-21 -23 -19 -64 6 -86 18 -16 42 -19 220 -22 181 -4
202 -3 219 13 37 33 18 89 -33 99 -12 3 -106 7 -209 9 -167 4 -189 2 -203 -13z"/>
<path d="M1129 4328 c-41 -28 -120 -82 -176 -120 -97 -65 -103 -70 -103 -103
0 -26 6 -39 26 -52 25 -16 28 -16 72 7 25 14 101 64 170 112 69 49 131 88 137
88 20 0 45 35 45 62 0 14 -8 32 -18 41 -33 30 -73 21 -153 -35z"/>
<path d="M10697 4122 c-22 -24 -22 -65 1 -85 45 -41 403 -164 446 -153 33 8
45 50 25 85 -12 21 -44 35 -179 81 -91 31 -179 63 -197 73 -41 22 -76 22 -96
-1z"/>
<path d="M1270 3736 c-92 -33 -235 -93 -303 -128 -68 -34 -88 -65 -67 -103 24
-45 50 -42 192 23 73 33 169 72 213 88 44 15 88 34 98 42 22 20 22 64 -1 85
-25 23 -54 21 -132 -7z"/>
<path d="M10497 3462 c-24 -27 -21 -68 6 -86 197 -135 326 -216 343 -216 27 0
54 30 54 62 0 33 -20 50 -188 162 -150 100 -184 112 -215 78z"/>
<path d="M1475 3185 c-84 -37 -122 -60 -138 -86 -15 -24 1 -68 28 -81 22 -10
38 -5 123 35 53 26 102 47 108 47 19 0 44 35 44 62 0 31 -29 58 -61 58 -13 0
-60 -16 -104 -35z"/>
<path d="M10217 3042 c-10 -10 -17 -29 -17 -42 0 -26 93 -146 143 -184 63 -48
167 -106 190 -106 49 0 76 70 40 102 -10 8 -53 36 -96 62 -56 35 -93 67 -133
117 -59 75 -93 88 -127 51z"/>
<path d="M1895 2741 c-11 -10 -65 -49 -120 -86 -129 -87 -145 -103 -145 -135
0 -31 27 -60 57 -60 20 0 237 143 286 188 16 16 27 36 27 52 0 54 -65 79 -105
41z"/>
<path d="M9777 2502 c-22 -24 -21 -65 1 -85 10 -10 22 -17 26 -17 4 0 40 -27
80 -60 87 -72 214 -140 260 -140 37 0 66 25 66 57 0 26 -35 56 -89 77 -49 19
-121 65 -166 106 -83 76 -146 98 -178 62z"/>
<path d="M2337 2102 c-10 -10 -17 -24 -17 -30 0 -6 -45 -53 -100 -104 -110
-102 -119 -123 -69 -160 34 -26 55 -16 151 67 122 106 165 188 120 228 -24 22
-65 21 -85 -1z"/>
<path d="M9157 2102 c-9 -10 -17 -28 -17 -40 0 -22 134 -208 204 -281 56 -59
114 -101 141 -101 54 0 74 76 29 113 -74 61 -111 102 -192 207 -74 97 -92 115
-118 118 -20 2 -36 -4 -47 -16z"/>
<path d="M2646 1724 c-71 -54 -176 -182 -176 -214 0 -33 28 -60 62 -60 20 0
39 17 84 71 32 40 82 89 111 111 42 31 53 44 53 67 0 34 -27 61 -62 61 -14 0
-46 -16 -72 -36z"/>
<path d="M8597 1702 c-31 -34 -20 -79 52 -226 67 -135 127 -227 163 -250 25
-16 71 4 82 36 8 23 3 36 -44 103 -52 76 -150 275 -150 306 0 43 -73 65 -103
31z"/>
<path d="M7895 1460 c-23 -25 -19 -40 50 -230 31 -85 65 -179 75 -209 20 -59
32 -71 72 -71 19 0 33 8 44 25 16 24 16 30 -4 93 -41 136 -131 375 -148 393
-22 25 -66 24 -89 -1z"/>
<path d="M3280 1385 c-7 -9 -23 -37 -35 -63 -28 -59 -94 -132 -165 -181 -41
-28 -56 -44 -58 -65 -4 -35 23 -66 56 -66 87 0 302 235 302 330 0 50 -70 81
-100 45z"/>
<path d="M7197 1262 c-10 -10 -17 -28 -17 -40 0 -22 88 -281 134 -391 43 -106
90 -137 136 -91 27 27 26 35 -14 121 -19 41 -58 144 -87 229 -29 85 -59 163
-67 173 -20 22 -64 22 -85 -1z"/>
<path d="M6557 1142 c-10 -10 -17 -26 -17 -34 0 -40 102 -434 117 -450 21 -24
58 -23 83 2 22 22 23 30 11 80 -5 19 -27 114 -50 210 -23 96 -49 183 -58 192
-21 23 -65 23 -86 0z"/>
<path d="M5836 1101 c-23 -26 -21 -35 90 -407 35 -119 69 -153 123 -124 32 17
33 42 2 140 -17 52 -46 154 -66 225 -19 72 -44 141 -54 155 -24 33 -71 38 -95
11z"/>
<path d="M3837 1083 c-10 -12 -16 -37 -16 -73 0 -30 -11 -99 -25 -153 -15 -53
-26 -105 -26 -116 0 -44 72 -68 102 -33 24 26 68 216 68 292 0 52 -4 71 -18
83 -24 22 -65 22 -85 0z"/>
<path d="M4557 1022 c-15 -16 -17 -47 -17 -228 0 -232 5 -254 59 -254 57 0 61
15 61 252 0 195 -2 216 -18 231 -24 22 -65 21 -85 -1z"/>
<path d="M5155 980 c-16 -17 -17 -31 -11 -109 13 -171 60 -415 86 -447 18 -20
64 -17 85 6 20 22 19 35 -14 190 -11 52 -26 151 -32 220 -8 81 -18 131 -27
143 -20 23 -65 22 -87 -3z"/>
</g>
</svg>
